<svg width="9.747070" height="5.689453" viewBox="0 0 9.74707 5.68945" fill="none" xmlns="http://www.w3.org/2000/svg" xmlns:xlink="http://www.w3.org/1999/xlink">
	<desc>
			Created with Pixso.
	</desc>
	<defs/>
	<path id="Vector" d="M4.87 5.68C4.83 5.68 4.81 5.68 4.78 5.67C4.75 5.65 4.73 5.64 4.71 5.62L0.04 0.33C0.01 0.29 -0.01 0.24 0 0.19C0 0.13 0.02 0.09 0.06 0.05C0.1 0.01 0.15 -0.01 0.2 0C0.26 0 0.3 0.02 0.34 0.07L4.87 5.17L9.39 0.07C9.43 0.02 9.47 0 9.53 0C9.58 -0.01 9.63 0.01 9.67 0.05C9.71 0.09 9.73 0.13 9.74 0.19C9.75 0.24 9.73 0.29 9.69 0.33L5.02 5.62C5 5.64 4.98 5.65 4.95 5.67C4.93 5.68 4.9 5.68 4.87 5.68Z" fill="#333333" fill-opacity="1.000000" fill-rule="nonzero"/>
</svg>
