<svg width="15.000000" height="19.190002" viewBox="0 0 15 19.19" fill="none" xmlns="http://www.w3.org/2000/svg" xmlns:xlink="http://www.w3.org/1999/xlink">
	<desc>
			Created with Pixso.
	</desc>
	<defs/>
	<path id="Vector" d="M11.87 6.25L11.87 3.75C11.87 2.97 11.6 2.31 11.05 1.76C10.5 1.21 9.83 0.93 9.06 0.93L2.81 0.93C2.04 0.93 1.37 1.21 0.82 1.76C0.27 2.31 0 2.97 0 3.75L0 6.25C0 7.02 0.27 7.68 0.82 8.23C1.37 8.79 2.04 9.06 2.81 9.06L3.44 9.06L3.44 11.25C3.44 11.3 3.45 11.36 3.49 11.41C3.52 11.47 3.57 11.51 3.63 11.54C3.65 11.55 3.67 11.55 3.69 11.55C3.71 11.55 3.73 11.55 3.75 11.55C3.78 11.55 3.82 11.55 3.86 11.53C3.9 11.52 3.94 11.49 3.96 11.46L6.37 9.06L9.06 9.06C9.83 9.06 10.5 8.79 11.05 8.23C11.6 7.68 11.87 7.02 11.87 6.25ZM6.25 8.43C6.2 8.43 6.16 8.44 6.13 8.45C6.09 8.47 6.06 8.49 6.03 8.52L4.05 10.5L4.05 8.74C4.05 8.66 4.02 8.59 3.96 8.53C3.91 8.46 3.83 8.43 3.75 8.43L2.81 8.43C2.2 8.43 1.69 8.22 1.26 7.79C0.84 7.36 0.62 6.85 0.62 6.25L0.62 3.75C0.62 3.14 0.84 2.62 1.26 2.2C1.69 1.77 2.2 1.56 2.81 1.56L9.06 1.56C9.66 1.56 10.17 1.77 10.6 2.2C11.03 2.62 11.25 3.14 11.25 3.75L11.25 6.25C11.25 6.85 11.03 7.36 10.6 7.79C10.17 8.22 9.66 8.43 9.06 8.43L6.25 8.43ZM13.12 7.8C13.03 7.8 12.96 7.83 12.9 7.9C12.84 7.96 12.81 8.04 12.81 8.12C12.81 8.2 12.84 8.27 12.9 8.34C12.96 8.4 13.03 8.43 13.12 8.43C13.46 8.43 13.75 8.55 14 8.8C14.24 9.04 14.37 9.34 14.37 9.68L14.37 10.94C14.37 11.28 14.24 11.57 14 11.82C13.75 12.06 13.46 12.18 13.12 12.18L12.18 12.18C12.09 12.18 12.02 12.21 11.96 12.27C11.9 12.33 11.87 12.4 11.87 12.49L11.87 13.62L10.53 12.27C10.5 12.24 10.46 12.22 10.42 12.2C10.39 12.19 10.35 12.18 10.31 12.18L8.74 12.18C8.4 12.18 8.11 12.06 7.86 11.82C7.62 11.57 7.5 11.28 7.5 10.94C7.5 10.85 7.46 10.77 7.4 10.71C7.34 10.65 7.27 10.62 7.19 10.62C7.1 10.62 7.02 10.65 6.96 10.71C6.9 10.77 6.87 10.85 6.87 10.94C6.87 11.46 7.05 11.9 7.41 12.26C7.78 12.63 8.22 12.81 8.74 12.81L10.18 12.81L11.96 14.58C11.99 14.61 12.03 14.64 12.07 14.66C12.1 14.68 12.14 14.69 12.18 14.69C12.2 14.69 12.22 14.68 12.24 14.68C12.26 14.68 12.28 14.67 12.3 14.66C12.36 14.64 12.4 14.6 12.44 14.55C12.47 14.49 12.49 14.43 12.49 14.37L12.49 12.81L13.12 12.81C13.64 12.81 14.08 12.63 14.45 12.26C14.81 11.9 15 11.46 15 10.94L15 9.68C15 9.16 14.81 8.72 14.45 8.35C14.08 7.99 13.64 7.8 13.12 7.8Z" fill="#333333" fill-opacity="1.000000" fill-rule="nonzero"/>
</svg>
