<svg width="43.750000" height="43.750000" viewBox="0 0 43.75 43.75" fill="none" xmlns="http://www.w3.org/2000/svg" xmlns:xlink="http://www.w3.org/1999/xlink">
	<desc>
			Created with Pixso.
	</desc>
	<defs/>
	<path id="Vector" d="M21.87 0C18.85 0 16.02 0.58 13.37 1.75C10.72 2.89 8.4 4.45 6.43 6.42C4.45 8.4 2.87 10.73 1.7 13.41C0.56 16.06 0 18.88 0 21.87C0 24.89 0.56 27.72 1.7 30.37C2.87 33.02 4.45 35.34 6.43 37.34C8.4 39.33 10.72 40.9 13.37 42.04C16.02 43.18 18.85 43.75 21.87 43.75C24.89 43.75 27.72 43.18 30.37 42.04C33.02 40.9 35.34 39.33 37.31 37.34C39.29 35.34 40.87 33.02 42.04 30.37C43.18 27.72 43.75 24.89 43.75 21.87C43.75 18.88 43.18 16.06 42.04 13.41C40.87 10.73 39.29 8.4 37.31 6.42C35.34 4.45 33.02 2.89 30.37 1.75C27.72 0.58 24.89 0 21.87 0ZM26.61 19.35L26.61 22.6L22.98 22.6L22.98 33.92L18.96 33.92L18.96 22.6L16.79 22.6L16.79 19.35L18.96 19.35L18.96 17.13C18.96 16.59 18.99 16 19.05 15.35C19.11 14.71 19.32 14.22 19.69 13.88C20.06 13.31 20.53 12.86 21.1 12.54C21.67 12.21 22.41 12.04 23.32 12.04C24.78 12.04 25.81 12.1 26.42 12.21C27.03 12.33 27.34 12.39 27.34 12.39L26.61 16.06C26.61 16.06 26.4 16 25.97 15.87C25.54 15.74 25.15 15.67 24.78 15.67C24.41 15.67 24.01 15.77 23.6 15.95C23.19 16.14 22.98 16.42 22.98 16.79L22.98 19.35L26.61 19.35Z" fill="#3B5998" fill-opacity="1.000000" fill-rule="nonzero"/>
</svg>
