<svg width="43.750000" height="43.750000" viewBox="0 0 43.75 43.75" fill="none" xmlns="http://www.w3.org/2000/svg" xmlns:xlink="http://www.w3.org/1999/xlink">
	<desc>
			Created with Pixso.
	</desc>
	<defs/>
	<path id="Vector" d="M21.87 0C18.85 0 16.02 0.58 13.37 1.75C10.72 2.89 8.4 4.45 6.43 6.42C4.45 8.4 2.87 10.73 1.7 13.41C0.56 16.06 0 18.88 0 21.87C0 24.89 0.56 27.72 1.7 30.37C2.87 33.02 4.45 35.34 6.43 37.34C8.4 39.33 10.72 40.9 13.37 42.04C16.02 43.18 18.85 43.75 21.87 43.75C24.89 43.75 27.72 43.18 30.37 42.04C33.02 40.9 35.34 39.33 37.31 37.34C39.29 35.34 40.87 33.02 42.04 30.37C43.18 27.72 43.75 24.89 43.75 21.87C43.75 18.88 43.18 16.06 42.04 13.41C40.87 10.73 39.29 8.4 37.31 6.42C35.34 4.45 33.02 2.89 30.37 1.75C27.72 0.58 24.89 0 21.87 0ZM33.45 27.04C33.45 28.89 32.79 30.47 31.46 31.78C30.14 33.09 28.55 33.75 26.7 33.75L17.04 33.75C15.19 33.75 13.6 33.09 12.28 31.78C10.95 30.47 10.29 28.89 10.29 27.04L10.29 16.74C10.29 14.89 10.95 13.3 12.28 11.98C13.6 10.66 15.19 9.99 17.04 9.99L26.7 9.99C28.55 9.99 30.14 10.66 31.46 11.98C32.79 13.3 33.45 14.89 33.45 16.74L33.45 27.04ZM26.7 11.79L17.04 11.79C16.39 11.79 15.75 11.91 15.14 12.15C14.53 12.39 13.99 12.76 13.54 13.24C13.08 13.7 12.73 14.23 12.47 14.84C12.21 15.45 12.09 16.09 12.09 16.74L12.09 27.04C12.09 27.7 12.21 28.32 12.47 28.92C12.73 29.52 13.08 30.06 13.54 30.54C13.99 31 14.53 31.35 15.14 31.61C15.75 31.87 16.39 32 17.04 32L26.7 32C27.35 32 27.98 31.87 28.58 31.61C29.18 31.35 29.72 31 30.2 30.54C30.66 30.06 31.01 29.52 31.27 28.92C31.53 28.32 31.65 27.7 31.65 27.04L31.65 16.74C31.65 16.09 31.53 15.45 31.27 14.84C31.01 14.23 30.66 13.7 30.2 13.24C29.72 12.76 29.18 12.39 28.58 12.15C27.98 11.91 27.35 11.79 26.7 11.79ZM21.91 28.15C20.15 28.15 18.64 27.53 17.41 26.29C16.17 25.05 15.55 23.55 15.55 21.78C15.55 20.02 16.17 18.52 17.41 17.28C18.64 16.04 20.15 15.42 21.91 15.42C23.68 15.42 25.18 16.04 26.42 17.28C27.66 18.52 28.28 20.02 28.28 21.78C28.28 23.55 27.66 25.05 26.42 26.29C25.18 27.53 23.68 28.15 21.91 28.15ZM28.36 16.83C27.97 16.83 27.62 16.68 27.32 16.38C27.02 16.08 26.87 15.73 26.87 15.33C26.87 14.91 27.02 14.54 27.32 14.24C27.62 13.94 27.97 13.79 28.36 13.79C28.79 13.79 29.15 13.94 29.45 14.24C29.75 14.54 29.9 14.91 29.9 15.33C29.9 15.73 29.75 16.08 29.45 16.38C29.15 16.68 28.79 16.83 28.36 16.83ZM26.06 21.78C26.06 22.95 25.65 23.94 24.84 24.75C24.03 25.57 23.04 25.97 21.87 25.97C20.73 25.97 19.75 25.57 18.92 24.75C18.1 23.94 17.68 22.95 17.68 21.78C17.68 20.65 18.1 19.67 18.92 18.86C19.75 18.05 20.73 17.64 21.87 17.64C23.04 17.64 24.03 18.05 24.84 18.86C25.65 19.67 26.06 20.65 26.06 21.78Z" fill="#262626" fill-opacity="1.000000" fill-rule="nonzero"/>
</svg>
