<svg width="15.000000" height="15.000000" viewBox="0 0 15 15" fill="none" xmlns="http://www.w3.org/2000/svg" xmlns:xlink="http://www.w3.org/1999/xlink">
	<desc>
			Created with Pixso.
	</desc>
	<defs/>
	<path id="Vector" d="M7.5 0C7.45 0 7.39 0 7.33 0C7.28 0.01 7.22 0.01 7.17 0.01C6.15 0.05 5.2 0.26 4.33 0.65C3.45 1.04 2.69 1.57 2.05 2.23C1.41 2.89 0.91 3.65 0.54 4.52C0.18 5.4 0 6.34 0 7.35C0 8.4 0.19 9.39 0.58 10.32C0.97 11.25 1.51 12.06 2.18 12.75C2.86 13.45 3.66 13.99 4.57 14.39C5.47 14.79 6.45 15 7.48 15C8.52 15 9.49 14.8 10.4 14.41C11.31 14.01 12.11 13.47 12.79 12.79C13.47 12.11 14.01 11.31 14.41 10.4C14.8 9.49 15 8.51 15 7.47C15 6.44 14.8 5.47 14.41 4.57C14.01 3.66 13.47 2.87 12.79 2.19C12.11 1.52 11.32 0.98 10.41 0.58C9.5 0.19 8.53 0 7.5 0ZM0.62 7.48L4.1 7.48C4.11 8 4.16 8.52 4.26 9.04C4.36 9.56 4.49 10.09 4.67 10.62L1.42 10.62C1.17 10.15 0.98 9.65 0.84 9.12C0.71 8.59 0.63 8.05 0.62 7.48ZM4.1 6.87L0.64 6.87C0.68 6.29 0.79 5.74 0.96 5.21C1.14 4.68 1.37 4.19 1.66 3.73L4.7 3.73C4.51 4.24 4.37 4.75 4.27 5.28C4.16 5.8 4.11 6.33 4.1 6.87ZM5.34 3.73L9.65 3.73C9.85 4.24 10.01 4.75 10.12 5.28C10.22 5.8 10.29 6.33 10.31 6.87L4.68 6.87C4.7 6.33 4.77 5.8 4.87 5.28C4.98 4.75 5.14 4.24 5.34 3.73ZM4.68 7.48L10.31 7.48C10.29 8 10.23 8.52 10.12 9.04C10.02 9.56 9.88 10.09 9.69 10.62L5.3 10.62C5.11 10.09 4.97 9.56 4.87 9.04C4.76 8.52 4.7 8 4.68 7.48ZM10.91 7.48L14.37 7.48C14.37 8.05 14.3 8.59 14.17 9.12C14.04 9.65 13.85 10.15 13.6 10.62L10.34 10.62C10.5 10.09 10.63 9.56 10.73 9.04C10.83 8.52 10.89 8 10.91 7.48ZM10.91 6.87C10.89 6.33 10.83 5.8 10.73 5.28C10.62 4.75 10.48 4.24 10.29 3.73L13.25 3.73C13.55 4.19 13.8 4.68 13.98 5.21C14.17 5.74 14.29 6.29 14.34 6.87L10.91 6.87ZM12.8 3.12L10.04 3.12C9.86 2.7 9.64 2.29 9.39 1.88C9.14 1.48 8.86 1.09 8.55 0.71C8.98 0.78 9.39 0.88 9.78 1.02C10.18 1.16 10.56 1.33 10.92 1.53C11.27 1.74 11.61 1.97 11.92 2.24C12.24 2.5 12.53 2.79 12.8 3.12ZM7.67 0.64C8.02 1.03 8.34 1.43 8.62 1.85C8.91 2.26 9.16 2.69 9.37 3.12L5.63 3.12C5.84 2.69 6.08 2.26 6.37 1.85C6.65 1.43 6.97 1.03 7.33 0.62C7.36 0.62 7.39 0.62 7.41 0.62C7.44 0.62 7.47 0.62 7.5 0.62C7.52 0.62 7.55 0.63 7.58 0.63C7.61 0.64 7.64 0.64 7.67 0.64ZM6.45 0.7C6.14 1.08 5.86 1.47 5.61 1.88C5.36 2.28 5.15 2.7 4.96 3.12L2.1 3.12C2.37 2.79 2.66 2.5 2.97 2.24C3.29 1.96 3.64 1.72 4 1.52C4.37 1.31 4.76 1.14 5.17 1.01C5.58 0.87 6.01 0.77 6.45 0.7ZM1.77 11.23L4.89 11.23C5.08 11.75 5.32 12.26 5.6 12.78C5.88 13.29 6.19 13.8 6.54 14.31C6.04 14.24 5.57 14.12 5.11 13.94C4.65 13.76 4.22 13.54 3.81 13.28C3.41 13.02 3.03 12.71 2.69 12.37C2.35 12.02 2.04 11.64 1.77 11.23ZM7.35 14.37C6.97 13.85 6.63 13.33 6.32 12.81C6.02 12.28 5.76 11.76 5.55 11.23L9.44 11.23C9.23 11.76 8.97 12.28 8.67 12.81C8.38 13.33 8.04 13.85 7.66 14.37C7.63 14.37 7.6 14.37 7.57 14.37C7.54 14.38 7.51 14.38 7.48 14.38C7.45 14.38 7.43 14.38 7.41 14.37C7.39 14.37 7.37 14.37 7.35 14.37ZM8.46 14.29C8.81 13.79 9.13 13.29 9.4 12.78C9.67 12.26 9.91 11.75 10.1 11.23L13.25 11.23C12.99 11.64 12.68 12.02 12.33 12.36C11.99 12.7 11.61 13 11.21 13.27C10.8 13.53 10.37 13.75 9.9 13.93C9.44 14.1 8.96 14.22 8.46 14.29Z" fill="#333333" fill-opacity="1.000000" fill-rule="nonzero"/>
</svg>
