<svg width="43.750000" height="43.750000" viewBox="0 0 43.75 43.75" fill="none" xmlns="http://www.w3.org/2000/svg" xmlns:xlink="http://www.w3.org/1999/xlink">
	<desc>
			Created with Pixso.
	</desc>
	<defs/>
	<path id="Vector" d="M21.87 0C18.85 0 16.02 0.58 13.37 1.75C10.72 2.89 8.4 4.45 6.43 6.42C4.45 8.4 2.87 10.73 1.7 13.41C0.56 16.06 0 18.88 0 21.87C0 24.89 0.56 27.72 1.7 30.37C2.87 33.02 4.45 35.34 6.43 37.34C8.4 39.33 10.72 40.9 13.37 42.04C16.02 43.18 18.85 43.75 21.87 43.75C24.89 43.75 27.72 43.18 30.37 42.04C33.02 40.9 35.34 39.33 37.31 37.34C39.29 35.34 40.87 33.02 42.04 30.37C43.18 27.72 43.75 24.89 43.75 21.87C43.75 18.88 43.18 16.06 42.04 13.41C40.87 10.73 39.29 8.4 37.31 6.42C35.34 4.45 33.02 2.89 30.37 1.75C27.72 0.58 24.89 0 21.87 0ZM15.67 32.47L11.66 32.47L11.66 18.62L16.02 18.62L16.02 32.47L15.67 32.47ZM13.5 17.13C12.76 17.13 12.14 16.89 11.66 16.4C11.17 15.92 10.93 15.32 10.93 14.61C10.93 13.87 11.17 13.31 11.66 12.94C12.14 12.57 12.76 12.39 13.5 12.39C14.21 12.39 14.81 12.61 15.29 13.07C15.77 13.52 16.02 14.04 16.02 14.61C16.02 15.32 15.77 15.92 15.29 16.4C14.81 16.89 14.21 17.13 13.5 17.13ZM32.81 32.47L28.07 32.47L28.07 25.16C28.07 24.25 27.87 23.47 27.47 22.83C27.07 22.19 26.41 21.87 25.5 21.87C24.96 21.87 24.51 22.04 24.16 22.38C23.8 22.72 23.52 23.17 23.32 23.71C23.32 23.88 23.32 24.06 23.32 24.24C23.32 24.43 23.32 24.62 23.32 24.82L23.32 32.08L18.24 32.08C18.24 32.08 18.24 31.44 18.24 30.16C18.24 28.85 18.24 27.38 18.24 25.76C18.24 24.13 18.24 22.61 18.24 21.19C18.24 19.73 18.24 18.88 18.24 18.62L22.98 18.62L22.98 20.8C23.15 20.26 23.6 19.76 24.33 19.31C25.05 18.85 26.06 18.62 27.34 18.62C28.79 18.62 30.07 19.11 31.16 20.08C32.26 21.04 32.81 22.62 32.81 24.82L32.81 32.47Z" fill="#0A66C2" fill-opacity="1.000000" fill-rule="nonzero"/>
</svg>
