<svg width="38.000000" height="38.000000" viewBox="0 0 38 38" fill="none" xmlns="http://www.w3.org/2000/svg" xmlns:xlink="http://www.w3.org/1999/xlink">
	<desc>
			Created with Pixso.
	</desc>
	<defs/>
	<path id="Vector" d="M29.27 20.59C28.09 20.59 26.96 20.81 25.9 21.26C24.83 21.73 23.91 22.36 23.13 23.15C22.35 23.94 21.73 24.86 21.26 25.9C20.81 26.96 20.59 28.1 20.59 29.31C20.59 30.5 20.81 31.62 21.26 32.69C21.73 33.75 22.35 34.67 23.13 35.45C23.91 36.23 24.83 36.86 25.9 37.33C26.96 37.77 28.09 38 29.27 38C30.49 38 31.62 37.77 32.69 37.33C33.73 36.86 34.64 36.23 35.43 35.45C36.23 34.67 36.86 33.75 37.33 32.69C37.77 31.62 38 30.5 38 29.31C38 28.1 37.77 26.96 37.33 25.9C36.86 24.86 36.23 23.94 35.43 23.15C34.64 22.36 33.73 21.73 32.69 21.26C31.62 20.81 30.49 20.59 29.27 20.59ZM29.27 36.44C27.32 36.44 25.64 35.74 24.25 34.34C22.85 32.94 22.15 31.27 22.15 29.31C22.15 27.33 22.85 25.65 24.25 24.26C25.64 22.88 27.32 22.19 29.27 22.19C31.25 22.19 32.94 22.88 34.32 24.26C35.71 25.65 36.4 27.33 36.4 29.31C36.4 31.27 35.71 32.94 34.32 34.34C32.94 35.74 31.25 36.44 29.27 36.44ZM33.25 28.5L30.09 28.5L30.09 25.34C30.09 25.12 30.01 24.93 29.85 24.78C29.69 24.64 29.5 24.56 29.27 24.56C29.08 24.56 28.9 24.64 28.74 24.78C28.58 24.93 28.5 25.12 28.5 25.34L28.5 28.5L25.34 28.5C25.12 28.5 24.93 28.58 24.77 28.74C24.6 28.9 24.52 29.09 24.52 29.31C24.52 29.51 24.6 29.69 24.77 29.85C24.93 30.01 25.12 30.09 25.34 30.09L28.5 30.09L28.5 33.25C28.5 33.47 28.58 33.66 28.74 33.82C28.9 33.98 29.08 34.06 29.27 34.06C29.5 34.06 29.69 33.98 29.85 33.82C30.01 33.66 30.09 33.47 30.09 33.25L30.09 30.09L33.25 30.09C33.47 30.09 33.65 30.01 33.8 29.85C33.95 29.69 34.02 29.51 34.02 29.31C34.02 29.09 33.95 28.9 33.8 28.74C33.65 28.58 33.47 28.5 33.25 28.5ZM22.11 21.04L22 21.3L21.85 21.78L22.11 21.04ZM22 21.3L22.3 20.26C21.78 20.08 21.24 19.9 20.68 19.72C20.13 19.53 19.56 19.34 19 19.14L19 16.17C19.39 15.93 19.86 15.45 20.41 14.73C20.95 14.01 21.27 12.95 21.37 11.54C21.64 11.36 21.86 11.08 22.04 10.7C22.21 10.32 22.3 9.87 22.3 9.35C22.3 8.9 22.23 8.5 22.09 8.14C21.96 7.78 21.78 7.5 21.56 7.31C21.75 6.81 21.95 6.17 22.15 5.38C22.35 4.58 22.35 3.74 22.15 2.85C21.88 1.81 21.12 1.08 19.89 0.64C18.65 0.21 17.42 0 16.21 0C15.15 0 14.06 0.16 12.95 0.5C11.83 0.83 11.04 1.39 10.57 2.18C10.18 2.18 9.82 2.23 9.5 2.33C9.17 2.43 8.9 2.61 8.68 2.85C8.16 3.42 7.97 4.16 8.1 5.08C8.24 5.99 8.39 6.75 8.57 7.34C8.47 7.42 8.38 7.5 8.31 7.6C8.23 7.7 8.16 7.81 8.08 7.94C7.99 8.13 7.91 8.36 7.86 8.6C7.81 8.85 7.79 9.11 7.79 9.38C7.79 9.9 7.87 10.35 8.03 10.72C8.19 11.09 8.42 11.36 8.72 11.54C8.81 12.95 9.14 14.01 9.68 14.73C10.22 15.45 10.69 15.93 11.09 16.17L11.09 19.14C10.6 19.32 10.09 19.49 9.59 19.66C9.08 19.84 8.58 20 8.08 20.15C6.23 20.76 4.63 21.36 3.3 21.95C1.96 22.53 1.13 23.28 0.81 24.19C0.44 25.35 0.21 26.74 0.12 28.35C0.04 29.96 0 30.8 0 30.87C0 30.97 0.01 31.07 0.05 31.17C0.09 31.27 0.14 31.35 0.22 31.43C0.29 31.5 0.38 31.56 0.48 31.61C0.58 31.66 0.68 31.69 0.77 31.69L17.4 31.69L17.4 30.09L1.59 30.09C1.62 29.45 1.68 28.58 1.79 27.49C1.91 26.4 2.09 25.46 2.33 24.67C2.51 24.15 3.25 23.63 4.56 23.11C5.87 22.59 7.22 22.11 8.6 21.67C9.2 21.47 9.79 21.26 10.39 21.05C10.98 20.84 11.57 20.64 12.17 20.44C12.32 20.37 12.43 20.26 12.52 20.13C12.61 19.99 12.65 19.85 12.65 19.7L12.65 15.73C12.65 15.58 12.61 15.44 12.52 15.3C12.43 15.17 12.32 15.06 12.17 14.99C12.14 14.99 11.82 14.71 11.2 14.17C10.58 13.63 10.27 12.56 10.27 10.98C10.27 10.76 10.21 10.57 10.09 10.42C9.97 10.27 9.79 10.2 9.57 10.2C9.54 10.18 9.5 10.09 9.44 9.96C9.38 9.82 9.35 9.63 9.35 9.38C9.35 9.14 9.37 8.94 9.42 8.81C9.47 8.67 9.5 8.6 9.5 8.6C9.72 8.6 9.9 8.52 10.05 8.36C10.2 8.2 10.27 8.02 10.27 7.83C10.27 7.73 10.26 7.62 10.24 7.49C10.21 7.37 10.18 7.21 10.13 7.01C10.03 6.69 9.9 6.16 9.74 5.43C9.58 4.7 9.62 4.2 9.87 3.93C9.94 3.85 10.07 3.8 10.26 3.78C10.44 3.76 10.66 3.78 10.91 3.85C11.13 3.88 11.33 3.84 11.5 3.72C11.67 3.61 11.78 3.46 11.83 3.26C11.96 2.79 12.44 2.39 13.28 2.07C14.12 1.75 15.1 1.59 16.21 1.59C17.35 1.59 18.34 1.75 19.18 2.07C20.02 2.39 20.49 2.79 20.59 3.26C20.76 3.93 20.75 4.59 20.55 5.25C20.36 5.9 20.18 6.43 20.03 6.82C19.96 7.02 19.9 7.19 19.85 7.32C19.8 7.46 19.77 7.59 19.77 7.71C19.77 7.91 19.84 8.08 19.98 8.23C20.11 8.38 20.29 8.46 20.52 8.46C20.54 8.48 20.58 8.57 20.63 8.72C20.68 8.86 20.7 9.07 20.7 9.35C20.7 9.59 20.68 9.79 20.63 9.94C20.58 10.09 20.57 10.18 20.59 10.2C20.37 10.2 20.18 10.27 20.02 10.42C19.85 10.57 19.77 10.76 19.77 10.98C19.77 12.54 19.47 13.6 18.87 14.15C18.26 14.71 17.94 14.99 17.92 14.99C17.77 15.06 17.65 15.16 17.55 15.28C17.45 15.41 17.4 15.56 17.4 15.73L17.4 19.7C17.4 19.85 17.45 19.99 17.55 20.13C17.65 20.26 17.77 20.37 17.92 20.44C18.59 20.69 19.25 20.92 19.9 21.15C20.56 21.37 21.2 21.58 21.82 21.78L22 21.3Z" fill="#FFFFFF" fill-opacity="1.000000" fill-rule="nonzero"/>
</svg>
