<svg width="15.000000" height="15.000000" viewBox="0 0 15 15" fill="none" xmlns="http://www.w3.org/2000/svg" xmlns:xlink="http://www.w3.org/1999/xlink">
	<desc>
			Created with Pixso.
	</desc>
	<defs/>
	<path id="Vector" d="M7.5 0C6.46 0 5.49 0.2 4.58 0.6C3.67 0.99 2.88 1.52 2.2 2.2C1.52 2.88 0.98 3.67 0.58 4.58C0.19 5.49 0 6.46 0 7.5C0 7.99 0.04 8.48 0.14 8.96C0.23 9.44 0.37 9.9 0.55 10.35C0.74 10.8 0.97 11.23 1.24 11.63C1.5 12.04 1.81 12.42 2.16 12.77C2.51 13.13 2.9 13.45 3.31 13.72C3.72 14 4.15 14.24 4.6 14.42C5.06 14.61 5.53 14.75 6.02 14.85C6.49 14.95 6.99 15 7.5 15C8 15 8.5 14.95 8.99 14.85C9.47 14.75 9.93 14.61 10.39 14.42C10.84 14.24 11.27 14 11.68 13.72C12.09 13.45 12.48 13.13 12.83 12.77C13.18 12.42 13.49 12.04 13.76 11.63C14.03 11.22 14.25 10.79 14.44 10.34C14.62 9.9 14.76 9.44 14.85 8.96C14.95 8.48 15 7.99 15 7.5C15 6.46 14.8 5.49 14.41 4.58C14.01 3.67 13.47 2.88 12.79 2.2C12.11 1.52 11.32 0.99 10.41 0.6C9.5 0.2 8.53 0 7.5 0ZM2.91 12.61C3.23 12.43 3.61 12.26 4.05 12.09C4.49 11.92 4.94 11.75 5.4 11.58C5.57 11.52 5.73 11.46 5.88 11.41C6.04 11.35 6.2 11.29 6.35 11.23C6.41 11.21 6.46 11.17 6.5 11.12C6.54 11.07 6.56 11.01 6.56 10.94L6.56 9.37C6.56 9.31 6.54 9.26 6.5 9.2C6.46 9.15 6.41 9.11 6.35 9.08C6.33 9.08 6.21 8.98 5.97 8.78C5.74 8.58 5.62 8.15 5.62 7.5C5.62 7.42 5.59 7.35 5.53 7.28C5.47 7.22 5.4 7.19 5.31 7.19C5.3 7.18 5.29 7.15 5.27 7.09C5.25 7.04 5.24 6.97 5.24 6.88C5.24 6.78 5.25 6.71 5.27 6.65C5.29 6.6 5.3 6.57 5.31 6.56C5.39 6.56 5.46 6.53 5.52 6.47C5.59 6.41 5.62 6.34 5.62 6.25C5.62 6.21 5.62 6.17 5.61 6.12C5.6 6.07 5.58 6 5.55 5.91C5.5 5.75 5.44 5.49 5.37 5.15C5.3 4.81 5.32 4.57 5.43 4.43C5.44 4.41 5.48 4.39 5.55 4.37C5.62 4.34 5.72 4.35 5.87 4.37C5.95 4.38 6.02 4.37 6.1 4.32C6.17 4.28 6.22 4.22 6.24 4.14C6.28 3.94 6.47 3.77 6.8 3.64C7.13 3.5 7.51 3.44 7.96 3.44C8.41 3.44 8.8 3.5 9.13 3.64C9.46 3.77 9.64 3.94 9.69 4.14C9.76 4.42 9.75 4.74 9.67 5.09C9.59 5.43 9.52 5.7 9.46 5.88C9.43 5.98 9.41 6.06 9.39 6.11C9.38 6.16 9.37 6.21 9.37 6.25C9.37 6.34 9.4 6.41 9.46 6.47C9.52 6.53 9.59 6.56 9.68 6.56C9.69 6.57 9.7 6.6 9.72 6.65C9.74 6.71 9.75 6.78 9.75 6.88C9.75 6.97 9.74 7.04 9.72 7.09C9.7 7.15 9.69 7.18 9.68 7.19C9.59 7.19 9.52 7.22 9.46 7.28C9.4 7.35 9.37 7.42 9.37 7.5C9.37 8.15 9.25 8.58 9.02 8.78C8.78 8.98 8.66 9.08 8.65 9.08C8.58 9.1 8.53 9.13 8.49 9.19C8.45 9.24 8.43 9.3 8.43 9.37L8.43 10.94C8.43 11.01 8.45 11.07 8.49 11.12C8.53 11.17 8.58 11.21 8.64 11.23C8.8 11.3 8.97 11.36 9.14 11.42C9.31 11.48 9.48 11.54 9.65 11.6C10.12 11.77 10.57 11.94 11 12.1C11.43 12.26 11.79 12.43 12.09 12.59C11.78 12.89 11.45 13.14 11.08 13.35C10.72 13.58 10.35 13.77 9.96 13.92C9.58 14.07 9.17 14.18 8.75 14.26C8.34 14.34 7.92 14.38 7.5 14.38C7.07 14.38 6.65 14.34 6.24 14.26C5.82 14.18 5.41 14.07 5.03 13.92C4.64 13.77 4.27 13.58 3.92 13.37C3.56 13.14 3.22 12.89 2.91 12.61ZM12.56 12.14C12.23 11.94 11.83 11.76 11.37 11.57C10.91 11.39 10.4 11.21 9.85 11.01C9.73 10.96 9.59 10.91 9.46 10.86C9.32 10.82 9.19 10.77 9.06 10.72L9.06 9.56C9.22 9.46 9.4 9.28 9.62 9C9.83 8.73 9.96 8.31 9.99 7.73C10.11 7.66 10.21 7.55 10.28 7.4C10.35 7.25 10.38 7.08 10.38 6.88C10.38 6.69 10.35 6.53 10.29 6.39C10.23 6.25 10.16 6.14 10.06 6.06C10.14 5.83 10.22 5.51 10.31 5.12C10.4 4.73 10.39 4.35 10.29 3.98C10.19 3.55 9.89 3.25 9.4 3.07C8.91 2.9 8.43 2.81 7.96 2.81C7.54 2.81 7.11 2.88 6.67 3.01C6.24 3.15 5.92 3.38 5.74 3.72C5.51 3.71 5.34 3.74 5.21 3.82C5.08 3.9 4.99 3.97 4.93 4.05C4.73 4.32 4.66 4.65 4.73 5.06C4.79 5.46 4.87 5.8 4.95 6.06C4.84 6.14 4.76 6.25 4.7 6.39C4.64 6.53 4.61 6.69 4.61 6.88C4.61 7.08 4.64 7.25 4.71 7.4C4.78 7.55 4.88 7.66 5 7.73C5.03 8.31 5.16 8.73 5.37 9C5.59 9.28 5.77 9.46 5.93 9.56L5.93 10.72C5.81 10.77 5.69 10.81 5.57 10.86C5.45 10.9 5.32 10.95 5.2 11C4.69 11.18 4.19 11.37 3.69 11.56C3.2 11.75 2.78 11.95 2.44 12.15C2.15 11.83 1.88 11.49 1.65 11.13C1.43 10.77 1.24 10.39 1.09 10C0.93 9.61 0.82 9.2 0.74 8.78C0.66 8.36 0.62 7.93 0.62 7.5C0.62 6.55 0.81 5.66 1.17 4.83C1.53 3.99 2.02 3.26 2.64 2.64C3.26 2.02 3.98 1.53 4.81 1.17C5.65 0.81 6.55 0.62 7.5 0.62C8.44 0.62 9.34 0.81 10.18 1.17C11.01 1.53 11.73 2.02 12.35 2.64C12.97 3.26 13.46 3.99 13.82 4.83C14.18 5.66 14.37 6.55 14.37 7.5C14.37 7.93 14.33 8.36 14.25 8.78C14.17 9.19 14.06 9.6 13.9 9.99C13.75 10.39 13.56 10.77 13.34 11.13C13.12 11.49 12.86 11.83 12.56 12.14Z" fill="#333333" fill-opacity="1.000000" fill-rule="nonzero"/>
</svg>
