<svg width="19.000000" height="19.000000" viewBox="0 0 19 19" fill="none" xmlns="http://www.w3.org/2000/svg" xmlns:xlink="http://www.w3.org/1999/xlink">
	<desc>
			Created with Pixso.
	</desc>
	<defs/>
	<path id="Vector" d="M18.88 18.33L11.74 11.2C12.27 10.6 12.69 9.91 12.99 9.15C13.3 8.39 13.45 7.58 13.45 6.73C13.45 5.8 13.27 4.93 12.93 4.11C12.57 3.3 12.09 2.58 11.48 1.97C10.87 1.36 10.16 0.88 9.35 0.53C8.53 0.17 7.66 0 6.73 0C5.8 0 4.93 0.17 4.11 0.53C3.3 0.88 2.58 1.36 1.97 1.97C1.36 2.58 0.88 3.3 0.53 4.11C0.17 4.93 0 5.8 0 6.73C0 7.66 0.17 8.53 0.53 9.35C0.88 10.16 1.36 10.88 1.97 11.49C2.58 12.1 3.3 12.58 4.11 12.93C4.93 13.29 5.8 13.47 6.73 13.47C7.58 13.47 8.39 13.31 9.15 13C9.91 12.69 10.59 12.28 11.18 11.76L18.33 18.88C18.36 18.92 18.41 18.95 18.46 18.97C18.51 18.99 18.56 19 18.61 19C18.65 19 18.7 18.99 18.75 18.97C18.8 18.95 18.85 18.92 18.88 18.88C18.96 18.81 19 18.72 19 18.61C19 18.49 18.96 18.4 18.88 18.33ZM0.79 6.73C0.79 5.91 0.95 5.15 1.26 4.43C1.57 3.7 1.99 3.07 2.53 2.53C3.07 1.99 3.69 1.57 4.41 1.26C5.13 0.95 5.9 0.79 6.73 0.79C7.55 0.79 8.31 0.95 9.03 1.26C9.75 1.57 10.38 1.99 10.91 2.53C11.45 3.07 11.88 3.7 12.19 4.43C12.51 5.15 12.67 5.91 12.67 6.73C12.67 7.55 12.51 8.31 12.19 9.03C11.88 9.76 11.45 10.4 10.91 10.93C10.38 11.47 9.75 11.89 9.03 12.2C8.31 12.51 7.55 12.67 6.73 12.67C5.9 12.67 5.13 12.51 4.41 12.2C3.69 11.89 3.07 11.47 2.53 10.93C1.99 10.4 1.57 9.76 1.26 9.03C0.95 8.31 0.79 7.55 0.79 6.73Z" fill="#57004E" fill-opacity="1.000000" fill-rule="nonzero"/>
</svg>
