<svg width="18.000000" height="18.000000" viewBox="0 0 18 18" fill="none" xmlns="http://www.w3.org/2000/svg" xmlns:xlink="http://www.w3.org/1999/xlink">
	<desc>
			Created with Pixso.
	</desc>
	<defs/>
	<path id="Vector" d="M17.89 17.36L11.12 10.61C11.63 10.04 12.02 9.39 12.31 8.67C12.6 7.95 12.74 7.18 12.74 6.38C12.74 5.5 12.58 4.67 12.25 3.9C11.91 3.12 11.45 2.45 10.88 1.87C10.3 1.29 9.63 0.83 8.85 0.5C8.08 0.16 7.25 0 6.38 0C5.5 0 4.67 0.16 3.9 0.5C3.12 0.83 2.45 1.29 1.87 1.87C1.29 2.45 0.83 3.12 0.5 3.9C0.16 4.67 0 5.5 0 6.38C0 7.25 0.16 8.08 0.5 8.85C0.83 9.63 1.29 10.3 1.87 10.88C2.45 11.46 3.12 11.92 3.9 12.25C4.67 12.59 5.5 12.76 6.38 12.76C7.18 12.76 7.95 12.61 8.67 12.32C9.39 12.02 10.03 11.63 10.59 11.14L17.36 17.89C17.4 17.92 17.44 17.95 17.49 17.97C17.53 17.99 17.58 18 17.63 18C17.67 18 17.72 17.99 17.77 17.97C17.81 17.95 17.85 17.92 17.89 17.89C17.96 17.82 18 17.73 18 17.63C18 17.52 17.96 17.43 17.89 17.36ZM0.75 6.38C0.75 5.6 0.9 4.88 1.19 4.2C1.48 3.5 1.88 2.9 2.39 2.39C2.9 1.88 3.5 1.48 4.18 1.19C4.86 0.9 5.59 0.75 6.38 0.75C7.15 0.75 7.88 0.9 8.56 1.19C9.24 1.48 9.83 1.88 10.34 2.39C10.85 2.9 11.25 3.5 11.54 4.2C11.85 4.88 12 5.6 12 6.38C12 7.15 11.85 7.88 11.54 8.56C11.25 9.25 10.85 9.85 10.34 10.36C9.83 10.87 9.24 11.27 8.56 11.56C7.88 11.85 7.15 12 6.38 12C5.59 12 4.86 11.85 4.18 11.56C3.5 11.27 2.9 10.87 2.39 10.36C1.88 9.85 1.48 9.25 1.19 8.56C0.9 7.88 0.75 7.15 0.75 6.38Z" fill="#FFFFFF" fill-opacity="1.000000" fill-rule="nonzero"/>
</svg>
