<svg width="43.750000" height="43.792969" viewBox="0 0 43.75 43.793" fill="none" xmlns="http://www.w3.org/2000/svg" xmlns:xlink="http://www.w3.org/1999/xlink">
	<desc>
			Created with Pixso.
	</desc>
	<defs/>
	<path id="Vector" d="M21.87 0C18.85 0 16.02 0.58 13.37 1.75C10.69 2.89 8.36 4.45 6.38 6.43C4.4 8.41 2.84 10.72 1.7 13.37C0.56 16.02 0 18.85 0 21.87C0 24.21 0.34 26.43 1.02 28.54C1.7 30.64 2.66 32.58 3.88 34.35C5.11 36.11 6.57 37.68 8.28 39.05C9.99 40.38 11.87 41.45 13.92 42.25C13.81 41.4 13.74 40.37 13.71 39.17C13.68 37.98 13.77 36.91 13.97 35.97C14.08 35.54 14.28 34.75 14.56 33.58C14.85 32.38 15.13 31.16 15.42 29.9C15.7 28.65 15.96 27.54 16.19 26.57C16.42 25.6 16.53 25.12 16.53 25.12C16.53 25.12 16.42 24.82 16.21 24.22C16 23.62 15.89 22.84 15.89 21.87C15.89 20.33 16.27 19.06 17.04 18.07C17.81 17.07 18.75 16.57 19.86 16.57C20.8 16.57 21.5 16.87 21.96 17.47C22.41 18.07 22.64 18.79 22.64 19.65C22.64 20.56 22.41 21.67 21.96 22.98C21.5 24.29 21.12 25.6 20.8 26.91C20.55 27.99 20.75 28.92 21.42 29.69C22.09 30.46 22.97 30.84 24.05 30.84C25.02 30.84 25.91 30.6 26.74 30.12C27.6 29.63 28.33 28.95 28.94 28.07C29.55 27.18 30.03 26.13 30.37 24.9C30.74 23.68 30.93 22.33 30.93 20.84C30.93 19.54 30.7 18.34 30.24 17.26C29.79 16.15 29.16 15.2 28.36 14.41C27.57 13.63 26.6 13.03 25.46 12.6C24.35 12.17 23.12 11.96 21.78 11.96C20.22 11.96 18.82 12.23 17.6 12.77C16.37 13.28 15.34 13.99 14.5 14.88C13.66 15.78 13.01 16.8 12.56 17.94C12.13 19.08 11.92 20.25 11.92 21.44C11.92 22.38 12.07 23.32 12.39 24.24C12.7 25.17 13.08 25.9 13.54 26.44C13.62 26.56 13.67 26.66 13.69 26.74C13.7 26.83 13.7 26.93 13.67 27.04C13.58 27.41 13.47 27.88 13.33 28.45C13.18 29.02 13.1 29.39 13.07 29.56C13.01 29.76 12.93 29.88 12.81 29.92C12.7 29.97 12.54 29.93 12.34 29.82C10.98 29.19 9.89 28.03 9.1 26.33C8.3 24.64 7.9 22.98 7.9 21.36C7.9 19.65 8.21 18 8.84 16.4C9.44 14.81 10.35 13.4 11.57 12.17C12.8 10.95 14.31 9.96 16.1 9.22C17.9 8.51 19.98 8.16 22.34 8.16C24.25 8.16 26.01 8.47 27.64 9.1C29.29 9.75 30.72 10.64 31.93 11.77C33.14 12.89 34.09 14.22 34.77 15.76C35.46 17.3 35.8 18.96 35.8 20.76C35.8 22.67 35.53 24.45 34.99 26.1C34.42 27.75 33.63 29.19 32.62 30.41C31.6 31.64 30.4 32.61 29.01 33.32C27.64 34.03 26.13 34.39 24.48 34.39C23.37 34.39 22.34 34.14 21.4 33.64C20.46 33.14 19.81 32.55 19.43 31.87C19.43 31.87 19.24 32.61 18.86 34.09C18.47 35.57 18.22 36.57 18.11 37.08C17.85 38.02 17.45 39.02 16.89 40.09C16.34 41.16 15.83 42.06 15.38 42.81C16.4 43.12 17.46 43.36 18.54 43.53C19.62 43.7 20.73 43.79 21.87 43.79C24.89 43.79 27.72 43.2 30.37 42.04C33.02 40.9 35.34 39.34 37.31 37.36C39.29 35.38 40.85 33.06 41.99 30.41C43.16 27.77 43.75 24.93 43.75 21.91C43.75 18.87 43.18 16.02 42.04 13.37C40.87 10.72 39.29 8.41 37.31 6.43C35.34 4.45 33.02 2.89 30.37 1.75C27.72 0.58 24.89 0 21.87 0Z" fill="#E60023" fill-opacity="1.000000" fill-rule="nonzero"/>
</svg>
