<svg width="25.308594" height="38.000000" viewBox="0 0 25.3086 38" fill="none" xmlns="http://www.w3.org/2000/svg" xmlns:xlink="http://www.w3.org/1999/xlink">
	<desc>
			Created with Pixso.
	</desc>
	<defs/>
	<path id="Vector" d="M12.65 0C10.89 0 9.25 0.33 7.71 1C6.18 1.66 4.84 2.57 3.69 3.72C2.54 4.87 1.64 6.22 1 7.75C0.33 9.29 0 10.93 0 12.69C0 14.37 0.59 16.57 1.78 19.29C2.99 22.04 4.33 24.74 5.8 27.4C7.27 30.06 8.64 32.39 9.9 34.4C11.16 36.37 11.86 37.46 11.98 37.66C12.06 37.76 12.15 37.84 12.28 37.9C12.4 37.96 12.53 38 12.65 38C12.77 38 12.9 37.96 13.02 37.9C13.14 37.84 13.24 37.76 13.32 37.66C13.44 37.46 14.13 36.37 15.4 34.4C16.66 32.39 18.02 30.06 19.5 27.4C20.97 24.74 22.31 22.04 23.52 19.29C24.71 16.57 25.3 14.37 25.3 12.69C25.3 10.93 24.97 9.29 24.3 7.75C23.66 6.22 22.76 4.87 21.61 3.72C20.46 2.57 19.12 1.66 17.58 1C16.05 0.33 14.41 0 12.65 0ZM12.65 35.77C12.03 34.8 11.1 33.31 9.87 31.28C8.63 29.25 7.4 27.08 6.17 24.78C4.95 22.48 3.88 20.22 2.96 17.99C2.02 15.79 1.55 14.02 1.55 12.69C1.55 11.15 1.85 9.72 2.44 8.38C3.01 7.02 3.8 5.84 4.8 4.84C5.8 3.84 6.98 3.05 8.34 2.48C9.68 1.89 11.12 1.59 12.65 1.59C14.18 1.59 15.62 1.89 16.95 2.48C18.31 3.05 19.5 3.84 20.5 4.84C21.5 5.84 22.29 7.02 22.85 8.38C23.45 9.72 23.75 11.15 23.75 12.69C23.75 14.02 23.28 15.79 22.33 17.99C21.42 20.22 20.35 22.48 19.12 24.78C17.9 27.08 16.67 29.25 15.43 31.28C14.2 33.31 13.27 34.8 12.65 35.77ZM12.65 7.12C11.12 7.12 9.81 7.66 8.73 8.75C7.66 9.84 7.12 11.15 7.12 12.69C7.12 14.2 7.66 15.49 8.73 16.58C9.81 17.67 11.12 18.22 12.65 18.22C14.18 18.22 15.49 17.67 16.56 16.58C17.64 15.49 18.18 14.2 18.18 12.69C18.18 11.15 17.64 9.84 16.56 8.75C15.49 7.66 14.18 7.12 12.65 7.12ZM12.65 16.62C11.56 16.62 10.63 16.24 9.85 15.47C9.07 14.7 8.68 13.78 8.68 12.69C8.68 11.6 9.07 10.66 9.85 9.88C10.63 9.11 11.56 8.72 12.65 8.72C13.74 8.72 14.67 9.11 15.45 9.88C16.23 10.66 16.62 11.6 16.62 12.69C16.62 13.78 16.23 14.7 15.45 15.47C14.67 16.24 13.74 16.62 12.65 16.62Z" fill="#FFFFFF" fill-opacity="1.000000" fill-rule="nonzero"/>
</svg>
