<svg width="43.750000" height="43.750000" viewBox="0 0 43.75 43.75" fill="none" xmlns="http://www.w3.org/2000/svg" xmlns:xlink="http://www.w3.org/1999/xlink">
	<desc>
			Created with Pixso.
	</desc>
	<defs/>
	<path id="Vector" d="M21.87 0C18.85 0 16.02 0.58 13.37 1.75C10.72 2.89 8.4 4.45 6.43 6.42C4.45 8.4 2.87 10.73 1.7 13.41C0.56 16.06 0 18.88 0 21.87C0 24.89 0.56 27.72 1.7 30.37C2.87 33.02 4.45 35.34 6.43 37.34C8.4 39.33 10.72 40.9 13.37 42.04C16.02 43.18 18.85 43.75 21.87 43.75C24.89 43.75 27.72 43.18 30.37 42.04C33.02 40.9 35.34 39.33 37.31 37.34C39.29 35.34 40.87 33.02 42.04 30.37C43.18 27.72 43.75 24.89 43.75 21.87C43.75 18.88 43.18 16.06 42.04 13.41C40.87 10.73 39.29 8.4 37.31 6.42C35.34 4.45 33.02 2.89 30.37 1.75C27.72 0.58 24.89 0 21.87 0ZM32.81 27C32.81 28.82 32.2 29.88 30.99 30.18C29.78 30.48 29.18 30.63 29.18 30.63L14.56 30.63C12.74 30.63 11.68 30.02 11.38 28.81C11.08 27.6 10.93 27 10.93 27L10.93 19.35C10.93 17.53 11.54 16.46 12.75 16.14C13.96 15.83 14.56 15.67 14.56 15.67L29.18 15.67C31 15.67 32.06 16.29 32.36 17.51C32.66 18.74 32.81 19.35 32.81 19.35L32.81 27ZM18.96 27.34L26.23 23.32L18.96 18.96L18.96 27.34Z" fill="#CC181E" fill-opacity="1.000000" fill-rule="nonzero"/>
</svg>
